0
SECTION
2
HEADER
9
$INSUNITS
70
4
9
$ACADVER
1
AC1014
9
$HANDSEED
5
FFFF
0
ENDSEC
0
SECTION
2
TABLES
0
TABLE
2
VPORT
5
8
100
AcDbSymbolTable
0
ENDTAB
0
TABLE
2
LTYPE
5
5
100
AcDbSymbolTable
0
LTYPE
5
14
100
AcDbSymbolTableRecord
100
AcDbLinetypeTableRecord
2
BYBLOCK
70
0
0
LTYPE
5
15
100
AcDbSymbolTableRecord
100
AcDbLinetypeTableRecord
2
BYLAYER
70
0
0
ENDTAB
0
TABLE
2
LAYER
5
2
100
AcDbSymbolTable
70
2
0
LAYER
5
50
100
AcDbSymbolTableRecord
100
AcDbLayerTableRecord
2
0
70
0
6
CONTINUOUS
0
ENDTAB
0
TABLE
2
STYLE
5
3
100
AcDbSymbolTable
70
1
0
STYLE
5
11
100
AcDbSymbolTableRecord
100
AcDbTextStyleTableRecord
2
STANDARD
70
0
0
ENDTAB
0
TABLE
2
VIEW
5
6
100
AcDbSymbolTable
70
0
0
ENDTAB
0
TABLE
2
UCS
5
7
100
AcDbSymbolTable
70
0
0
ENDTAB
0
TABLE
2
APPID
5
9
100
AcDbSymbolTable
70
2
0
APPID
5
12
100
AcDbSymbolTableRecord
100
AcDbRegAppTableRecord
2
ACAD
70
0
0
ENDTAB
0
TABLE
2
DIMSTYLE
5
A
100
AcDbSymbolTable
70
1
0
ENDTAB
0
TABLE
2
BLOCK_RECORD
5
1
100
AcDbSymbolTable
70
1
0
BLOCK_RECORD
5
1F
100
AcDbSymbolTableRecord
100
AcDbBlockTableRecord
2
*MODEL_SPACE
0
BLOCK_RECORD
5
1B
100
AcDbSymbolTableRecord
100
AcDbBlockTableRecord
2
*PAPER_SPACE
0
ENDTAB
0
ENDSEC
0
SECTION
2
BLOCKS
0
BLOCK
5
20
100
AcDbEntity
100
AcDbBlockBegin
2
*MODEL_SPACE
0
ENDBLK
5
21
100
AcDbEntity
100
AcDbBlockEnd
0
BLOCK
5
1C
100
AcDbEntity
100
AcDbBlockBegin
2
*PAPER_SPACE
0
ENDBLK
5
1D
100
AcDbEntity
100
AcDbBlockEnd
0
ENDSEC
0
SECTION
2
ENTITIES
0
LWPOLYLINE
5
100
100
AcDbEntity
8
0
100
AcDbPolyline
90
12
70
1
43
0.0
10
-3.8499999999999912
20
-54.266744131821881
10
3.8500000000000134
20
-54.266744131821881
10
9.8499999999999908
20
-54.266744131821234
42
0.4142135623730947
10
10.85000000000001
20
-53.266744131821213
10
10.850000000000005
20
-20.266744131701007
42
0.41421356237309503
10
9.8499999999999979
20
-19.266744131701007
10
3.8500000000000023
20
-19.26674413170101
10
-3.8500000000000023
20
-19.26674413170101
10
-9.8499999999999979
20
-19.266744131701014
42
0.41421356237309503
10
-10.849999999999998
20
-20.26674413170101
10
-10.849999999999987
20
-53.266744131818385
42
0.41421356237309503
10
-9.8499999999999837
20
-54.266744131818392
0
LINE
5
101
100
AcDbEntity
8
0
100
AcDbLine
10
0
20
-54.266744131821966
30
0
11
0
21
-19.26674413170101
31
0
0
ARC
5
102
100
AcDbEntity
8
0
100
AcDbCircle
10
-3.8499999999999912
20
-51.266744131821881
30
0
40
3.0000000000000004
210
0
220
0
230
1
100
AcDbArc
50
180
51
270
0
ARC
5
103
100
AcDbEntity
8
0
100
AcDbCircle
10
3.8500000000000139
20
-51.266744131821881
30
0
40
2.9999999999999982
210
0
220
0
230
1
100
AcDbArc
50
-90
51
0
0
ARC
5
104
100
AcDbEntity
8
0
100
AcDbCircle
10
3.8500000000000023
20
-22.26674413170101
30
0
40
3.0000000000000004
210
-0
220
0
230
1
100
AcDbArc
50
0
51
90
0
ARC
5
105
100
AcDbEntity
8
0
100
AcDbCircle
10
-3.8500000000000014
20
-22.26674413170101
30
0
40
2.9999999999999982
210
0
220
0
230
1
100
AcDbArc
50
90.000000000000014
51
180
0
CIRCLE
5
106
100
AcDbEntity
8
0
100
AcDbCircle
10
8.8500000000000085
20
-37.266744131821881
30
0
40
1
210
0
220
0
230
1
0
CIRCLE
5
107
100
AcDbEntity
8
0
100
AcDbCircle
10
-8.8499999999999925
20
-37.266744131821881
30
0
40
1
210
0
220
0
230
1
0
CIRCLE
5
108
100
AcDbEntity
8
0
100
AcDbCircle
10
8.8500000000000085
20
-37.266744131821881
30
0
40
2
210
0
220
0
230
1
0
CIRCLE
5
109
100
AcDbEntity
8
0
100
AcDbCircle
10
-8.8499999999999925
20
-37.266744131821881
30
0
40
2
210
0
220
0
230
1
0
LINE
5
110
100
AcDbEntity
8
0
100
AcDbLine
10
6.8500000000000121
20
-51.266744131821881
30
0
11
6.8500000000000032
21
-22.266744131701003
31
0
0
LINE
5
111
100
AcDbEntity
8
0
100
AcDbLine
10
-6.8499999999999996
20
-22.26674413170101
30
0
11
-6.8499999999999917
21
-51.266744131821881
31
0
0
LINE
5
112
100
AcDbEntity
8
0
100
AcDbLine
10
11.339091674351902
20
-12.766744131724735
30
0
11
11.339091674351902
21
-58.322403374813234
31
0
0
LINE
5
113
100
AcDbEntity
8
0
100
AcDbLine
10
-11.339091674351902
20
-12.766744131724735
30
0
11
-11.339091674351895
21
-62.736238714342477
31
0
0
LINE
5
114
100
AcDbEntity
8
0
100
AcDbLine
10
3.8500000000000094
20
-39.766744131821881
30
0
11
-3.8499999999999823
21
-39.766744131821881
31
0
0
LINE
5
115
100
AcDbEntity
8
0
100
AcDbLine
10
3.8500000000000041
20
-34.766744131821881
30
0
11
-3.8499999999999841
21
-34.766744131821881
31
0
0
LINE
5
116
100
AcDbEntity
8
0
100
AcDbLine
10
8.8500000000000085
20
-37.266744131821881
30
0
11
-8.8499999999999925
21
-37.266744131821881
31
0
0
ARC
5
117
100
AcDbEntity
8
0
100
AcDbCircle
10
3.8500000000000041
20
-31.766744131821877
30
0
40
3.0000000000000027
210
0
220
0
230
1
100
AcDbArc
50
-90
51
0
0
ARC
5
118
100
AcDbEntity
8
0
100
AcDbCircle
10
-3.8499999999999837
20
-31.76674413182187
30
0
40
3.0000000000000138
210
0
220
0
230
1
100
AcDbArc
50
180
51
270
0
ARC
5
119
100
AcDbEntity
8
0
100
AcDbCircle
10
-3.8499999999999823
20
-42.766744131821895
30
0
40
3.000000000000016
210
0
220
-0
230
1
100
AcDbArc
50
90
51
180
0
ARC
5
120
100
AcDbEntity
8
0
100
AcDbCircle
10
3.850000000000009
20
-42.766744131821881
30
0
40
3.0000000000000018
210
0
220
0
230
1
100
AcDbArc
50
0
51
90
0
ENDSEC
0
SECTION
2
OBJECTS
0
DICTIONARY
5
C
100
AcDbDictionary
3
ACAD_GROUP
350
D
3
ACAD_MLINESTYLE
350
17
0
DICTIONARY
5
D
100
AcDbDictionary
0
DICTIONARY
5
1A
330
C
100
AcDbDictionary
0
DICTIONARY
5
17
100
AcDbDictionary
0
ENDSEC
0
EOF
