0
SECTION
2
HEADER
9
$INSUNITS
70
4
9
$ACADVER
1
AC1014
9
$HANDSEED
5
FFFF
0
ENDSEC
0
SECTION
2
TABLES
0
TABLE
2
VPORT
5
8
100
AcDbSymbolTable
0
ENDTAB
0
TABLE
2
LTYPE
5
5
100
AcDbSymbolTable
0
LTYPE
5
14
100
AcDbSymbolTableRecord
100
AcDbLinetypeTableRecord
2
BYBLOCK
70
0
0
LTYPE
5
15
100
AcDbSymbolTableRecord
100
AcDbLinetypeTableRecord
2
BYLAYER
70
0
0
ENDTAB
0
TABLE
2
LAYER
5
2
100
AcDbSymbolTable
70
2
0
LAYER
5
50
100
AcDbSymbolTableRecord
100
AcDbLayerTableRecord
2
0
70
0
6
CONTINUOUS
0
ENDTAB
0
TABLE
2
STYLE
5
3
100
AcDbSymbolTable
70
1
0
STYLE
5
11
100
AcDbSymbolTableRecord
100
AcDbTextStyleTableRecord
2
STANDARD
70
0
0
ENDTAB
0
TABLE
2
VIEW
5
6
100
AcDbSymbolTable
70
0
0
ENDTAB
0
TABLE
2
UCS
5
7
100
AcDbSymbolTable
70
0
0
ENDTAB
0
TABLE
2
APPID
5
9
100
AcDbSymbolTable
70
2
0
APPID
5
12
100
AcDbSymbolTableRecord
100
AcDbRegAppTableRecord
2
ACAD
70
0
0
ENDTAB
0
TABLE
2
DIMSTYLE
5
A
100
AcDbSymbolTable
70
1
0
ENDTAB
0
TABLE
2
BLOCK_RECORD
5
1
100
AcDbSymbolTable
70
1
0
BLOCK_RECORD
5
1F
100
AcDbSymbolTableRecord
100
AcDbBlockTableRecord
2
*MODEL_SPACE
0
BLOCK_RECORD
5
1B
100
AcDbSymbolTableRecord
100
AcDbBlockTableRecord
2
*PAPER_SPACE
0
ENDTAB
0
ENDSEC
0
SECTION
2
BLOCKS
0
BLOCK
5
20
100
AcDbEntity
100
AcDbBlockBegin
2
*MODEL_SPACE
0
ENDBLK
5
21
100
AcDbEntity
100
AcDbBlockEnd
0
BLOCK
5
1C
100
AcDbEntity
100
AcDbBlockBegin
2
*PAPER_SPACE
0
ENDBLK
5
1D
100
AcDbEntity
100
AcDbBlockEnd
0
ENDSEC
0
SECTION
2
ENTITIES
0
LWPOLYLINE
5
100
100
AcDbEntity
8
0
100
AcDbPolyline
90
12
70
1
43
0.0
10
4.131510014510436
20
-10.625
10
-4.1315100145104324
20
-10.625000000000002
42
-0.49943898350184246
10
-9.0556267038787048
20
6.9249999999999261
10
-6.5
20
6.9249999999999297
42
-0.41421356237309503
10
-5.8999999999999995
20
6.32499999999993
10
-5.8999999999999986
20
4.0249999999999293
42
0.99999999999999989
10
-3.7000000000000002
20
4.0249999999999293
10
-3.7000000000000002
20
6.32499999999993
42
0.41421356237309503
10
-6.5
20
9.1249999999999289
10
-6.8333282520307383
20
9.1249999999999272
42
-0.068083401657829404
10
-4.1315100145104431
20
10.625
10
4.1315100145104449
20
10.624999999999998
42
-0.68409317510489986
0
LINE
5
101
100
AcDbEntity
8
0
100
AcDbLine
10
1.940478842194711e-15
20
-10.625
30
0
11
4.9242176818092846e-29
21
10.625
31
0
0
CIRCLE
5
102
100
AcDbEntity
8
0
100
AcDbCircle
10
3.1250000000000049
20
-4.5225616820231291
30
0
40
1
210
0
220
0
230
1
0
CIRCLE
5
103
100
AcDbEntity
8
0
100
AcDbCircle
10
-3.124999999999996
20
-4.5225616820231291
30
0
40
1
210
0
220
0
230
1
0
CIRCLE
5
104
100
AcDbEntity
8
0
100
AcDbCircle
10
0
20
5.4774383179768726
30
0
40
1
210
0
220
0
230
1
0
CIRCLE
5
105
100
AcDbEntity
8
0
100
AcDbCircle
10
3.1250000000000049
20
-4.5225616820231291
30
0
40
1.1000000000000001
210
0
220
0
230
1
0
CIRCLE
5
106
100
AcDbEntity
8
0
100
AcDbCircle
10
-3.124999999999996
20
-4.5225616820231291
30
0
40
1.1000000000000001
210
0
220
0
230
1
0
CIRCLE
5
107
100
AcDbEntity
8
0
100
AcDbCircle
10
0
20
5.4774383179768726
30
0
40
1.1000000000000001
210
0
220
0
230
1
0
CIRCLE
5
108
100
AcDbEntity
8
0
100
AcDbCircle
10
8
20
-9.3161084939981432e-16
30
0
40
1.1000000000000001
210
0
220
0
230
1
0
CIRCLE
5
109
100
AcDbEntity
8
0
100
AcDbCircle
10
-8
20
6.0822840634205663e-15
30
0
40
1.0999999999999999
210
0
220
0
230
1
0
LINE
5
110
100
AcDbEntity
8
0
100
AcDbLine
10
6.9000000000000004
20
-2.4649981606097072e-14
30
0
11
-6.9000000000000004
21
2.7193891382116314e-14
31
0
0
LINE
5
111
100
AcDbEntity
8
0
100
AcDbLine
10
9.0999999999999996
20
-1.0550773475130425e-15
30
0
11
-9.0999999999999996
21
1.0550773475130425e-15
31
0
0
CIRCLE
5
112
100
AcDbEntity
8
0
100
AcDbCircle
10
1.6939238834217422e-15
20
-7.9249999999999998
30
0
40
1.1000000000000001
210
0
220
0
230
1
0
LWPOLYLINE
5
113
100
AcDbEntity
8
0
100
AcDbPolyline
90
4
70
1
43
0.0
10
4.0000000000000098
20
9.125
10
-0.99999999999999101
20
9.125
42
0.99999999999999989
10
-0.99999999999999079
20
6.92499999999984
10
4.0000000000000098
20
6.9249999999998408
42
0.99999999999999989
0
LINE
5
114
100
AcDbEntity
8
0
100
AcDbLine
10
4.0000000000000098
20
8.0249999999999169
30
0
11
-0.9999999999999909
21
8.0249999999999204
31
0
0
LINE
5
115
100
AcDbEntity
8
0
100
AcDbLine
10
-4.7999999999999989
20
4.0249999999999293
30
0
11
-4.8000000000000016
21
6.32499999999993
31
0
0
LINE
5
116
100
AcDbEntity
8
0
100
AcDbLine
10
-4.8000000000000016
20
6.32499999999993
30
0
11
-6.4999999999999751
21
8.0249999999999293
31
0
0
LINE
5
117
100
AcDbEntity
8
0
100
AcDbLine
10
-6.4999999999999751
20
8.0249999999999293
30
0
11
-8.0968743969510406
21
8.024999999999924
31
0
0
LINE
5
118
100
AcDbEntity
8
0
100
AcDbLine
10
0
20
5.4774383179768726
30
0
11
-1.1000000000000001
21
5.4774383179768726
31
0
0
ENDSEC
0
SECTION
2
OBJECTS
0
DICTIONARY
5
C
100
AcDbDictionary
3
ACAD_GROUP
350
D
3
ACAD_MLINESTYLE
350
17
0
DICTIONARY
5
D
100
AcDbDictionary
0
DICTIONARY
5
1A
330
C
100
AcDbDictionary
0
DICTIONARY
5
17
100
AcDbDictionary
0
ENDSEC
0
EOF
