0
SECTION
2
HEADER
9
$INSUNITS
70
4
9
$ACADVER
1
AC1014
9
$HANDSEED
5
FFFF
0
ENDSEC
0
SECTION
2
TABLES
0
TABLE
2
VPORT
5
8
100
AcDbSymbolTable
0
ENDTAB
0
TABLE
2
LTYPE
5
5
100
AcDbSymbolTable
0
LTYPE
5
14
100
AcDbSymbolTableRecord
100
AcDbLinetypeTableRecord
2
BYBLOCK
70
0
0
LTYPE
5
15
100
AcDbSymbolTableRecord
100
AcDbLinetypeTableRecord
2
BYLAYER
70
0
0
LTYPE
5
16
100
AcDbSymbolTableRecord
100
AcDbLinetypeTableRecord
2
DASHED
70
0
3
Dashed __ __ __ __ __ __ __ __ __ __ __ __ __ _
72
65
73
2
40
0.75
49
0.5
74
0
49
-0.25
74
0
0
ENDTAB
0
TABLE
2
LAYER
5
2
100
AcDbSymbolTable
70
2
0
LAYER
5
50
100
AcDbSymbolTableRecord
100
AcDbLayerTableRecord
2
0
70
0
62
7
6
CONTINUOUS
0
ENDTAB
0
TABLE
2
STYLE
5
3
100
AcDbSymbolTable
70
1
0
STYLE
5
11
100
AcDbSymbolTableRecord
100
AcDbTextStyleTableRecord
2
STANDARD
70
0
0
ENDTAB
0
TABLE
2
VIEW
5
6
100
AcDbSymbolTable
70
0
0
ENDTAB
0
TABLE
2
UCS
5
7
100
AcDbSymbolTable
70
0
0
ENDTAB
0
TABLE
2
APPID
5
9
100
AcDbSymbolTable
70
2
0
APPID
5
12
100
AcDbSymbolTableRecord
100
AcDbRegAppTableRecord
2
ACAD
70
0
0
ENDTAB
0
TABLE
2
DIMSTYLE
5
A
100
AcDbSymbolTable
70
1
0
ENDTAB
0
TABLE
2
BLOCK_RECORD
5
1
100
AcDbSymbolTable
70
1
0
BLOCK_RECORD
5
1F
100
AcDbSymbolTableRecord
100
AcDbBlockTableRecord
2
*MODEL_SPACE
0
BLOCK_RECORD
5
1B
100
AcDbSymbolTableRecord
100
AcDbBlockTableRecord
2
*PAPER_SPACE
0
ENDTAB
0
ENDSEC
0
SECTION
2
BLOCKS
0
BLOCK
5
20
100
AcDbEntity
100
AcDbBlockBegin
2
*MODEL_SPACE
0
ENDBLK
5
21
100
AcDbEntity
100
AcDbBlockEnd
0
BLOCK
5
1C
100
AcDbEntity
100
AcDbBlockBegin
2
*PAPER_SPACE
0
ENDBLK
5
1D
100
AcDbEntity
100
AcDbBlockEnd
0
ENDSEC
0
SECTION
2
ENTITIES
0
POINT
5
100
100
AcDbEntity
8
0
100
AcDbPoint
10
32.000000000058371
20
0
30
0
0
POINT
5
101
100
AcDbEntity
8
0
100
AcDbPoint
10
32.000000000058371
20
0
30
1.3877787807814457e-16
0
POINT
5
102
100
AcDbEntity
8
0
100
AcDbPoint
10
32.000000000058371
20
0
30
0
0
POINT
5
103
100
AcDbEntity
8
0
100
AcDbPoint
10
51.249999999970214
20
0
30
0
0
POINT
5
104
100
AcDbEntity
8
0
100
AcDbPoint
10
16.249999999970193
20
0
30
0
0
CIRCLE
5
105
100
AcDbEntity
8
0
100
AcDbCircle
10
34.249999999311278
20
-8.8500000015207299
30
0
40
2.0000000000000009
210
0
220
0
230
1
6
DASHED
0
LWPOLYLINE
5
106
100
AcDbEntity
8
0
100
AcDbPolyline
90
10
70
1
43
0.0
10
19.249999999468812
20
-6.8499999983936002
10
48.249999995908311
20
-6.8500000005527699
42
0.4142135623730957
10
51.249999999683553
20
-3.8499999972242844
10
51.250000000256868
20
3.849999997224284
10
51.250000000703594
20
9.8499999972292809
42
0.41421356237309115
10
50.25000000079384
20
10.849999997287947
10
17.250000000743867
20
10.849999999744933
42
0.41421356237309798
10
16.25000000070278
20
9.8499999998527592
10
16.250000000256033
20
3.8499999978257056
10
16.249999999682714
20
-3.849999998160758
42
0.41421356237309515
0
ARC
5
107
100
AcDbEntity
8
0
100
AcDbCircle
10
39.750000000247439
20
3.8499999980790776
30
0
40
2.9999999999906093
210
0
220
-0
230
1
100
AcDbArc
50
89.999999995734015
51
180
0
LINE
5
108
100
AcDbEntity
8
0
100
AcDbLine
10
31.750000000256854
20
3.84999999864996
30
0
11
31.749999999683531
21
-3.8499999992964025
31
0
0
LINE
5
109
100
AcDbEntity
8
0
100
AcDbLine
10
16.249999999682714
20
-3.849999998160758
30
0
11
16.249999999235971
21
-9.8500000001878121
31
0
0
LINE
5
110
100
AcDbEntity
8
0
100
AcDbLine
10
36.750000000256833
20
3.8499999983024469
30
0
11
36.749999999683517
21
-3.8499999996834431
31
0
0
CIRCLE
5
111
100
AcDbEntity
8
0
100
AcDbCircle
10
34.250000000629171
20
8.8499999984792801
30
0
40
2.0000000000000009
210
0
220
0
230
1
6
DASHED
0
LINE
5
112
100
AcDbEntity
8
0
100
AcDbLine
10
34.250000000629171
20
8.8499999984792801
30
0
11
34.249999999311278
21
-8.8500000015207299
31
0
6
DASHED
0
ARC
5
113
100
AcDbEntity
8
0
100
AcDbCircle
10
28.750000000241439
20
3.8499999988733302
30
0
40
3.000000000015417
210
-0
220
0
230
1
100
AcDbArc
50
0
51
89.999999995734015
0
ARC
5
114
100
AcDbEntity
8
0
100
AcDbCircle
10
48.250000000267676
20
3.8499999974476551
30
0
40
2.999999999989198
210
-0
220
0
230
1
100
AcDbArc
50
0
51
89.999999995733873
0
LINE
5
115
100
AcDbEntity
8
0
100
AcDbLine
10
51.24999999923682
20
-9.8499999993587224
30
0
11
51.249999999683553
21
-3.8499999972242844
31
0
0
LINE
5
116
100
AcDbEntity
8
0
100
AcDbLine
10
48.250000000491049
20
6.84999999743685
30
0
11
19.25000000247308
21
6.8499999995960064
31
0
0
CIRCLE
5
117
100
AcDbEntity
8
0
100
AcDbCircle
10
34.249999999311278
20
-8.8500000015207299
30
0
40
1.0000000000000004
210
0
220
0
230
1
0
CIRCLE
5
118
100
AcDbEntity
8
0
100
AcDbCircle
10
34.250000000629171
20
8.8499999984792801
30
0
40
1.0000000000000004
210
0
220
0
230
1
0
ARC
5
119
100
AcDbEntity
8
0
100
AcDbCircle
10
19.250000002249706
20
3.8499999976023345
30
0
40
3.000000001993671
210
0
220
-0
230
1
100
AcDbArc
50
89.999999995733873
51
180
0
ARC
5
120
100
AcDbEntity
8
0
100
AcDbCircle
10
28.749999999655692
20
-3.8499999990730323
30
0
40
3.0000000000278408
210
0
220
0
230
1
100
AcDbArc
50
269.99999999573396
51
360
0
ARC
5
121
100
AcDbEntity
8
0
100
AcDbCircle
10
50.249999995809027
20
-9.8499999992842664
30
0
40
1.0000000034277945
210
0
220
0
230
1
100
AcDbArc
50
269.9999999957347
51
360
0
ARC
5
122
100
AcDbEntity
8
0
100
AcDbCircle
10
39.749999999696641
20
-3.8499999999068137
30
0
40
3.0000000000131211
210
0
220
0
230
1
100
AcDbArc
50
180
51
269.99999999573396
0
LINE
5
123
100
AcDbEntity
8
0
100
AcDbLine
10
49.179202654884037
20
-2.6193248413869003e-09
30
0
11
16.249999999969372
21
-1.6752741529458776e-10
31
0
6
DASHED
0
ARC
5
124
100
AcDbEntity
8
0
100
AcDbCircle
10
17.24999999922877
20
-9.8500000002622699
30
0
40
0.99999999999279776
210
0
220
0
230
1
100
AcDbArc
50
180
51
269.99999999573367
0
LINE
5
125
100
AcDbEntity
8
0
100
AcDbLine
10
17.249999999154308
20
-10.850000000255068
30
0
11
50.249999995734584
21
-10.850000002712061
31
0
0
LINE
5
126
100
AcDbEntity
8
0
100
AcDbLine
10
9.9999999999851301
20
-11.574999999999999
30
0
11
9.9999999999851301
21
11.574999999999999
31
0
6
DASHED
0
LINE
5
127
100
AcDbEntity
8
0
100
AcDbLine
10
14.000000000058359
20
0
30
1.3877787807814457e-16
11
53.499999999902663
21
0
31
1.3877787807814457e-16
6
DASHED
0
ENDSEC
0
SECTION
2
OBJECTS
0
DICTIONARY
5
C
100
AcDbDictionary
3
ACAD_GROUP
350
D
3
ACAD_MLINESTYLE
350
17
0
DICTIONARY
5
D
100
AcDbDictionary
0
DICTIONARY
5
1A
330
C
100
AcDbDictionary
0
DICTIONARY
5
17
100
AcDbDictionary
0
ENDSEC
0
EOF
